<svg width="300" height="300" viewBox="0 0 300 300" fill="none" xmlns="http://www.w3.org/2000/svg">
<path fill-rule="evenodd" clip-rule="evenodd" d="M109.839 50.8781C109.154 49.1363 109.937 47.1967 111.562 46.2684L121.607 40.5298C124.137 39.0846 127.379 40.7696 128.435 43.485C131.719 51.9275 140.025 58.0628 150.002 58.0628C159.979 58.0628 168.284 51.9281 171.568 43.4863C172.624 40.7711 175.866 39.0864 178.395 40.5315L188.441 46.2701C190.066 47.1984 190.849 49.1382 190.164 50.88C183.914 66.7876 168.289 78.0628 150.002 78.0628C131.714 78.0628 116.088 66.7868 109.839 50.8781ZM67.5369 78.39C65.6552 76.1164 65.8151 72.4021 68.3777 70.9382L78.4893 65.1618C80.0916 64.2465 82.1289 64.5343 83.2939 65.9655C94.13 79.2778 96.2038 98.3349 87.0481 114.026C77.8961 129.711 60.1903 137.462 43.1272 134.843C41.2852 134.56 40 132.923 40 131.059V119.526C40 116.599 43.0962 114.621 45.9835 115.105C55.2212 116.654 64.7962 112.479 69.682 104.105C74.5468 95.768 73.4442 85.5277 67.5369 78.39ZM45.9835 184.874C43.0962 185.358 40 183.38 40 180.452V168.92C40 167.056 41.2852 165.419 43.1272 165.136C60.1903 162.517 77.896 170.268 87.048 185.953C96.2035 201.644 94.13 220.7 83.2946 234.012C82.1296 235.444 80.0923 235.732 78.4899 234.816L68.3783 229.04C65.8158 227.576 65.6558 223.862 67.5374 221.588C73.4442 214.451 74.5466 204.211 69.6819 195.874C64.7961 187.5 55.2212 183.325 45.9835 184.874ZM128.435 256.493C127.379 259.208 124.137 260.893 121.608 259.448L111.562 253.709C109.937 252.781 109.154 250.841 109.839 249.1C116.089 233.192 131.715 221.916 150.002 221.916C168.288 221.916 183.913 233.191 190.164 249.098C190.848 250.84 190.065 252.78 188.44 253.708L178.395 259.446C175.865 260.892 172.624 259.207 171.567 256.492C168.283 248.05 159.978 241.916 150.002 241.916C140.025 241.916 131.719 248.051 128.435 256.493ZM231.562 222.606C233.201 224.873 232.916 228.301 230.487 229.688L220.342 235.484C218.679 236.433 216.56 236.084 215.427 234.541C205.723 221.337 204.173 203.189 212.955 188.138C222.107 172.455 239.81 164.703 256.872 167.321C258.715 167.604 260 169.241 260 171.104V182.637C260 185.565 256.904 187.542 254.017 187.059C244.78 185.511 235.207 189.687 230.321 198.059C225.716 205.952 226.458 215.549 231.562 222.606ZM254.017 115.106C256.904 114.622 260 116.6 260 119.527V131.06C260 132.924 258.715 134.56 256.872 134.843C239.811 137.461 222.107 129.71 212.955 114.026C203.8 98.3354 205.873 79.2791 216.708 65.9669C217.873 64.5357 219.911 64.2477 221.513 65.1631L231.625 70.9395C234.187 72.4034 234.347 76.1174 232.466 78.391C226.559 85.5287 225.457 95.7683 230.321 104.105C235.207 112.478 244.78 116.653 254.017 115.106ZM202.491 148.949C202.491 134.774 191.035 123.345 176.981 123.345C162.927 123.345 151.472 134.774 151.472 148.949C151.472 163.124 162.927 174.553 176.981 174.553C191.035 174.553 202.491 163.124 202.491 148.949ZM218.491 148.949C218.491 125.971 199.906 107.345 176.981 107.345C154.056 107.345 135.472 125.971 135.472 148.949C135.472 171.926 154.056 190.553 176.981 190.553C199.906 190.553 218.491 171.926 218.491 148.949ZM131.84 192.152C135.216 192.152 138 194.902 138 198.353C138 201.804 135.216 204.555 131.84 204.555C128.463 204.555 125.679 201.804 125.679 198.353C125.679 194.902 128.463 192.152 131.84 192.152ZM131.84 180.152C141.869 180.152 150 188.301 150 198.353C150 208.406 141.869 216.555 131.84 216.555C121.81 216.555 113.679 208.406 113.679 198.353C113.679 188.301 121.81 180.152 131.84 180.152Z" fill="url(#paint0_linear_3692_37)"/>
<defs>
<linearGradient id="paint0_linear_3692_37" x1="131.526" y1="222.104" x2="131.526" y2="78.3923" gradientUnits="userSpaceOnUse">
<stop stop-color="#FFC061"/>
<stop offset="1" stop-color="#F05D5D"/>
</linearGradient>
</defs>
</svg>
